# xmcd
#
# Track frame offsets:
#	150
#	11119
#	29016
#	40614
#	52799
#	64395
#	77115
#	92805
#	108697
#	121839
#	135607
#	146894
#	159288
#	177444
#	188831
#	200252
#	213062
#	232189
#	249512
#	263441
#	279922
#	291802
#
# Disc length: 4024 seconds
#
# Revision: 0
# Processed by: cddbd v1.5.2PL0 Copyright (c) Steve Scherf et al.
# Submitted via: dBpowerAMP V4.0
#
DISCID=3a0fb616
DTITLE=Chris LeDoux - Cowboys Ain't Easy To Love/Paint Me Back Home In Wyoming
DYEAR=2007
DGENRE=Country
TTITLE0=Cowboys Ain't Easy To Love
TTITLE1=Silence On The Line
TTITLE2=Weekend Country Cowboy
TTITLE3=Bars Shouldn't Have Mirrors
TTITLE4=Round And Round She Goes
TTITLE5=Tennessee Stud
TTITLE6=Hoka Hey, Lakotas
TTITLE7=The Blizzard
TTITLE8=The Old Timer
TTITLE9=Raised By The Railroad Line
TTITLE10=Let That Leather Crack
TTITLE11=Chisum
TTITLE12=Paint Me Back Home In Wyoming
TTITLE13=Ain't Had Time To Go Home
TTITLE14=Cowcamp Blues
TTITLE15=Lean, Mean And Hungry
TTITLE16=Six Bucks A Day
TTITLE17=Night Rider's Lament
TTITLE18=Getting By A Quarter At A Time
TTITLE19=Hippies In Calgary
TTITLE20=Pilgrim's Progress
TTITLE21=Coming Home Mom Waltz
EXTD=
EXTT0=
EXTT1=
EXTT2=
EXTT3=
EXTT4=
EXTT5=
EXTT6=
EXTT7=
EXTT8=
EXTT9=
EXTT10=
EXTT11=
EXTT12=
EXTT13=
EXTT14=
EXTT15=
EXTT16=
EXTT17=
EXTT18=
EXTT19=
EXTT20=
EXTT21=
PLAYORDER=
